<?xml version="1.0" encoding="UTF-8" standalone="no"?>
<svg width="216px" height="124px" viewBox="0 0 216 124" version="1.1" xmlns="http://www.w3.org/2000/svg" xmlns:xlink="http://www.w3.org/1999/xlink" xmlns:sketch="http://www.bohemiancoding.com/sketch/ns">
    <!-- Generator: Sketch 3.2.2 (9983) - http://www.bohemiancoding.com/sketch -->
    <title>Error Illo@2x</title>
    <desc>Created with Sketch.</desc>
    <defs>
        <path id="path-1" d="M0,0.492394318 L215.50799,0.492394318 L215.50799,123.497976 L0,123.497976"></path>
        <path id="path-3" d="M0,0.492394318 L215.50799,0.492394318 L215.50799,123.497976 L0,123.497976 L0,0.492394318 Z"></path>
    </defs>
    <g id="Page-1" stroke="none" stroke-width="1" fill="none" fill-rule="evenodd" sketch:type="MSPage">
        <g id="Desktop-HD" sketch:type="MSArtboardGroup" transform="translate(-607.000000, -98.000000)">
            <g id="Modal-(Error)" sketch:type="MSLayerGroup">
                <g id="Error-Illo" transform="translate(607.000000, 98.000000)">
                    <g id="Laptop">
                        <g id="Base">
                            <path d="M195.394336,116.250659 C195.394336,119.946895 192.408841,122.943304 188.725986,122.943304 L26.7819973,122.943304 C23.0991788,122.943304 20.1136474,119.946895 20.1136474,116.250659 L20.1136474,7.1850398 C20.1136474,3.48880324 23.0991788,0.492394318 26.7819973,0.492394318 L188.725986,0.492394318 C192.408841,0.492394318 195.394336,3.48880324 195.394336,7.1850398 L195.394336,116.250659 Z" id="Laptop" fill="#454545" sketch:type="MSShapeGroup"></path>
                            <g id="Group-5">
                                <mask id="mask-2" sketch:name="Clip 4" fill="white">
                                    <use xlink:href="#path-1"></use>
                                </mask>
                                <g id="Clip-4"></g>
                                <path d="M215.507994,119.817638 C215.507994,121.850232 214.678785,123.497961 213.655971,123.497961 L1.85202674,123.497961 C0.829175964,123.497961 3.70463879e-06,121.850232 3.70463879e-06,119.817638 C3.70463879e-06,117.78497 0.829175964,116.137203 1.85202674,116.137203 L213.655971,116.137203 C214.678785,116.137203 215.507994,117.78497 215.507994,119.817638" id="Fill-3" fill="#D5D5D5" sketch:type="MSShapeGroup" mask="url(#mask-2)"></path>
                            </g>
                            <path d="M107.753762,116.202293 L107.753762,116.202293 L92.9090147,116.202293 C92.9090147,116.202293 93.2177964,118.145168 95.7991146,118.145168 L107.753762,118.145168 L119.708409,118.145168 C122.289727,118.145168 122.59899,116.202293 122.59899,116.202293 L107.753762,116.202293 Z" id="Fill-6" fill="#919191" sketch:type="MSShapeGroup"></path>
                            <mask id="mask-4" sketch:name="Clip 9" fill="white">
                                <use xlink:href="#path-3"></use>
                            </mask>
                            <g id="Clip-9"></g>
                            <path d="M189.651456,109.531113 L26,109.531113 L26,8 L189.651456,8 L189.651456,109.531113 Z" id="Screen" fill="#C3E6EF" sketch:type="MSShapeGroup" mask="url(#mask-4)"></path>
                            <path d="M109.139149,3.96069145 C109.139149,4.72844943 108.518992,5.35082828 107.753984,5.35082828 C106.988976,5.35082828 106.368857,4.72844943 106.368857,3.96069145 C106.368857,3.19293347 106.988976,2.57051744 107.753984,2.57051744 C108.518992,2.57051744 109.139149,3.19293347 109.139149,3.96069145" id="Fill-10" fill="#919191" sketch:type="MSShapeGroup" mask="url(#mask-4)"></path>
                        </g>
                    </g>
                    <path d="M123.996127,90 C123.998705,89.89159 124,89.7828902 124,89.673913 C124,81.5697346 116.836556,75 108,75 C99.163444,75 92,81.5697346 92,89.673913 C92,89.7828902 92.0012953,89.89159 92.0038726,90 L123.996127,90 Z" id="Oval-5" fill-opacity="0.8" fill="#72A4B1" sketch:type="MSShapeGroup"></path>
                    <g id="cross" transform="translate(75.000000, 38.000000)" fill="#72A4B1" sketch:type="MSShapeGroup">
                        <path d="M9.348,10.849 C8.879,11.318 8.119,11.318 7.651,10.849 L5,7.819 L2.349,10.848 C1.88,11.317 1.12,11.317 0.652,10.848 C0.183,10.379 0.183,9.619 0.652,9.151 L3.41,6.001 L0.651,2.849 C0.182,2.38 0.182,1.621 0.651,1.152 C1.12,0.683 1.879,0.683 2.348,1.152 L5,4.183 L7.651,1.152 C8.12,0.683 8.879,0.683 9.348,1.152 C9.817,1.621 9.817,2.381 9.348,2.849 L6.59,6.001 L9.348,9.151 C9.817,9.62 9.817,10.38 9.348,10.849 L9.348,10.849 Z" id="Shape"></path>
                    </g>
                    <g id="cross-2" transform="translate(131.000000, 38.000000)" fill="#72A4B1" sketch:type="MSShapeGroup">
                        <path d="M9.348,10.849 C8.879,11.318 8.119,11.318 7.651,10.849 L5,7.819 L2.349,10.848 C1.88,11.317 1.12,11.317 0.652,10.848 C0.183,10.379 0.183,9.619 0.652,9.151 L3.41,6.001 L0.651,2.849 C0.182,2.38 0.182,1.621 0.651,1.152 C1.12,0.683 1.879,0.683 2.348,1.152 L5,4.183 L7.651,1.152 C8.12,0.683 8.879,0.683 9.348,1.152 C9.817,1.621 9.817,2.381 9.348,2.849 L6.59,6.001 L9.348,9.151 C9.817,9.62 9.817,10.38 9.348,10.849 L9.348,10.849 Z" id="Shape"></path>
                    </g>
                </g>
            </g>
        </g>
    </g>
</svg>