<svg width="216" height="124" viewBox="0 0 216 124" xmlns="http://www.w3.org/2000/svg" xmlns:xlink="http://www.w3.org/1999/xlink"><title>Error Illo@2x</title><desc>Created with Sketch.</desc><defs><path id="a" d="M0 .492h215.508v123.006H0"/><path id="c" d="M0 .492h215.508v123.006H0V.492z"/></defs><g fill="none"><g transform="translate(-607 -98) translate(607 98)"><path d="M195.394 116.25c0 3.697-2.985 6.693-6.668 6.693H26.782c-3.683 0-6.668-2.996-6.668-6.692V7.186c0-3.696 2.985-6.693 6.668-6.693h161.944c3.683 0 6.668 2.997 6.668 6.693V116.25z" fill="#454545"/><g><mask id="b"><use xlink:href="#a"/></mask><path d="M215.508 119.818c0 2.032-.83 3.68-1.852 3.68H1.852C.83 123.498 0 121.85 0 119.818c0-2.033.83-3.68 1.852-3.68h211.804c1.023 0 1.852 1.647 1.852 3.68" fill="#D5D5D5" mask="url(#b)"/></g><path d="M107.754 116.202H92.91s.308 1.943 2.89 1.943h23.908c2.582 0 2.89-1.943 2.89-1.943h-14.844z" fill="#919191"/><mask id="d"><use xlink:href="#c"/></mask><path d="M189.65 109.53H26V8h163.65v101.53z" fill="#C3E6EF" mask="url(#d)"/><path d="M109.14 3.96c0 .768-.62 1.39-1.386 1.39-.765 0-1.385-.622-1.385-1.39 0-.767.62-1.39 1.384-1.39.765 0 1.385.623 1.385 1.39" fill="#919191" mask="url(#d)"/></g><path d="M123.996 90c.003-.108.004-.217.004-.326C124 81.57 116.837 75 108 75s-16 6.57-16 14.674c0 .11 0 .218.004.326h31.992z" fill-opacity=".8" fill="#72A4B1"/><path d="M84.348 48.85c-.47.468-1.23.468-1.697 0L80 45.82l-2.65 3.028c-.47.47-1.23.47-1.698 0-.47-.47-.47-1.23 0-1.697L78.41 44l-2.76-3.15c-.468-.47-.468-1.23 0-1.698.47-.47 1.23-.47 1.698 0L80 42.182l2.65-3.03c.47-.47 1.23-.47 1.698 0 .47.47.47 1.23 0 1.697L81.59 44l2.758 3.15c.47.47.47 1.23 0 1.7zM140.348 48.85c-.47.468-1.23.468-1.697 0L136 45.82l-2.65 3.028c-.47.47-1.23.47-1.698 0-.47-.47-.47-1.23 0-1.697L134.41 44l-2.76-3.15c-.468-.47-.468-1.23 0-1.698.47-.47 1.23-.47 1.698 0l2.652 3.03 2.65-3.03c.47-.47 1.23-.47 1.698 0 .47.47.47 1.23 0 1.697L137.59 44l2.758 3.15c.47.47.47 1.23 0 1.7z" fill="#72A4B1"/></g></svg>